<?xml version="1.0" encoding="utf-8"?>
<!-- Generator: Adobe Illustrator 19.0.1, SVG Export Plug-In . SVG Version: 6.00 Build 0)  -->
<svg version="1.1" id="Layer_1" xmlns="http://www.w3.org/2000/svg" xmlns:xlink="http://www.w3.org/1999/xlink" x="0px" y="0px"
	 viewBox="-202 378.5 205.2 37.5" style="enable-background:new -202 378.5 205.2 37.5;" xml:space="preserve">
<style type="text/css">
	.st0{display:none;}
	.st1{display:inline;fill:#FFFFFF;}
	.st2{display:inline;fill:none;stroke:#000000;stroke-width:8;stroke-linecap:round;stroke-miterlimit:10;}
	.st3{font-family:'PTMono-Bold';}
	.st4{font-size:38px;}
</style>
<g id="Layer_4" class="st0">
	<path class="st1" d="M-31.9,396.5c-3.7-0.7-6-1.3-7.3-2.7c-1.4-1.4-2-3.6-2.7-7.3c-0.1-0.3-0.3-0.5-0.6-0.5c-0.3,0-0.6,0.2-0.6,0.5
		c-0.7,3.7-1.3,6-2.7,7.3c-1.4,1.4-3.6,2-7.3,2.7c-0.3,0.1-0.5,0.3-0.5,0.6c0,0.3,0.2,0.6,0.5,0.6c3.7,0.7,6,1.3,7.3,2.7
		c1.4,1.4,2,3.6,2.7,7.3c0.1,0.3,0.3,0.5,0.6,0.5c0.3,0,0.6-0.2,0.6-0.5c0.7-3.7,1.3-6,2.7-7.3c1.4-1.4,3.6-2,7.3-2.7
		c0.3-0.1,0.5-0.3,0.5-0.6S-31.5,396.5-31.9,396.5z"/>
</g>
<g id="Layer_2" class="st0">
	<path class="st2" d="M-215,332.9c6.7-9.8,10.6-21.7,10.6-34.5c0-33.8-27.4-61.3-61.3-61.3s-61.3,27.4-61.3,61.3
		c0,33.8,27.4,61.3,61.3,61.3c14.6,0,28-5.1,38.6-13.7"/>
</g>
<text transform="matrix(1 0 0 1 -202.0154 408.9487)" class="st3 st4">OPEN MAKE</text>
</svg>
